<svg xmlns="http://www.w3.org/2000/svg" width="98" height="98" viewBox="0 0 98 98"><g transform="translate(236.743 10541.132)"><circle cx="49" cy="49" r="49" transform="translate(-236.743 -10541.132)" fill="#fff8f5"/><path d="M28.064,13.417a3.036,3.036,0,0,0-4.294,0l-8.452,8.452-2.393-3.011a3.032,3.032,0,1,0-4.747,3.774l4.413,5.553a3.044,3.044,0,0,0,2.474,1.271,3.012,3.012,0,0,0,2.143-.889L28.064,17.711a3.04,3.04,0,0,0,0-4.294Zm-1.484,2.81L15.724,27.083a.938.938,0,0,1-1.434-.128c-.013-.018-.026-.035-.039-.052L9.821,21.326a.934.934,0,0,1,1.462-1.163l3.124,3.932a1.049,1.049,0,0,0,1.563.089L25.254,14.9a.938.938,0,1,1,1.326,1.326ZM54.733,39.3a31.261,31.261,0,0,0-21.854-9.214,17.233,17.233,0,1,0-20.4,7.158q-1.172.968-2.263,2.056A31.271,31.271,0,0,0,1,61.554,1.049,1.049,0,0,0,2.049,62.6H12.156a1.049,1.049,0,0,0,1.049-1.049,19.271,19.271,0,1,1,38.542,0A1.049,1.049,0,0,0,52.8,62.6H62.9a1.049,1.049,0,0,0,1.049-1.049A31.27,31.27,0,0,0,54.733,39.3ZM31.427,32.2v8.014a21.219,21.219,0,0,0-8.712,2.338l-4.007-6.941A29.175,29.175,0,0,1,31.427,32.2Zm2.1,0a29.177,29.177,0,0,1,12.719,3.411l-4.007,6.941a21.217,21.217,0,0,0-8.712-2.338ZM3.1,20.992a15.138,15.138,0,1,1,27.187,9.163,31.175,31.175,0,0,0-15.738,5.521A15.223,15.223,0,0,1,3.1,20.992Zm8.034,39.513H3.117A29.175,29.175,0,0,1,6.531,47.786l6.94,4.007A21.215,21.215,0,0,0,11.132,60.505Zm3.39-10.528L7.583,45.97a29.608,29.608,0,0,1,9.309-9.31L20.9,43.6A21.542,21.542,0,0,0,14.522,49.977ZM44.053,43.6l4.007-6.94a29.612,29.612,0,0,1,9.309,9.31L50.43,49.977A21.538,21.538,0,0,0,44.053,43.6Zm9.767,16.9a21.216,21.216,0,0,0-2.338-8.712l6.94-4.007a29.173,29.173,0,0,1,3.414,12.719ZM38.582,51.684,33.136,57.13A4.473,4.473,0,1,0,36.9,60.894l5.445-5.446a2.661,2.661,0,0,0-3.764-3.764ZM32.476,63.929a2.375,2.375,0,1,1,2.375-2.375A2.378,2.378,0,0,1,32.476,63.929Zm8.386-9.965L36.01,58.816a4.515,4.515,0,0,0-.8-.8l4.852-4.852a.563.563,0,1,1,.8.8Z" transform="translate(-215.295 -10529.158)" fill="#cc9680"/></g></svg>